# xmcd
#
# Track frame offsets:
#	150
#	24784
#	67989
#	96144
#	123379
#	155253
#	179727
#	218043
#	267386
#
# Disc length: 3991 seconds
#
# Revision: 1
# Processed by: cddbd v1.5.2PL0 Copyright (c) Steve Scherf et al.
# Submitted via: audiograbber 1.83.01
#
DISCID=750f9509
DTITLE=Miller Anderson Band - Live in Vienna
DYEAR=2017
DGENRE=Bluesrock
TTITLE0=Through the Mill
TTITLE1=Overdog
TTITLE2=When a blind man cries
TTITLE3=City Blues
TTITLE4=Route 66
TTITLE5=Across the Borderline
TTITLE6=Where is your heart
TTITLE7=Born to die
TTITLE8=I'm a man
EXTD=
EXTT0=
EXTT1=
EXTT2=
EXTT3=
EXTT4=
EXTT5=
EXTT6=
EXTT7=
EXTT8=
PLAYORDER=
